<svg xmlns="http://www.w3.org/2000/svg" width="600" height="444.552" viewBox="0 0 600 444.552"><path d="M595.527 13.353V0c-10.592 0-19.69 3.801-27.284 11.403-7.598 7.594-11.4 16.69-11.4 27.284V52.04c10.593 0 19.69-3.797 27.288-11.401 7.599-7.597 11.396-16.69 11.396-27.286zM51.11 156.617c23.323 25.69 75.87 26.737 96.84 0h.027l-.015-.016.015-.016h-.027c-20.97-26.737-73.517-25.69-96.84 0h-.033a.433.433 0 0 1 .016.016l-.016.016h.033zm67.953 197.45h-3.138c-2.858 0-3.835-1.394-3.835-4.114V310.49h-7.11v39.883c0 5.23 2.926 9.761 9.69 9.761h4.393v-6.067zm-24.328 40.006c-3.556 0-6.972 1.324-9.414 3.973v-3.554h-6.97v35.348h7.11v-21.543c0-5.44 3.348-7.879 7.322-7.879 3.973 0 7.111 2.37 7.111 7.879v21.543h7.111v-22.59c0-3.974-.837-7.322-3.554-9.97-2.092-2.023-5.09-3.207-8.716-3.207zm-1.95-37.706c3.348-3.485 4.183-7.947 4.183-13.943 0-5.927-.835-10.389-4.182-13.877-2.301-2.37-5.787-4.181-10.598-4.181-4.812 0-8.228 1.811-10.53 4.181-3.345 3.488-4.182 7.95-4.182 13.877 0 5.996.837 10.458 4.182 13.943 2.302 2.37 5.718 4.185 10.53 4.185 4.811 0 8.297-1.815 10.598-4.185zm-18.198-13.943c0-3.835.278-7.531 2.442-9.692 1.324-1.325 3.067-2.021 5.159-2.021s3.903.696 5.23 2.02c2.16 2.162 2.44 5.858 2.44 9.693s-.28 7.53-2.44 9.69c-1.327 1.324-3.138 2.092-5.23 2.092s-3.835-.768-5.16-2.092c-2.163-2.16-2.441-5.855-2.441-9.69zm289.104-32.144h-7.53v7.531h7.53v-7.531zm219.955 83.793c-9.065 0-14.992 6.624-14.992 18.059 0 13.455 7.042 18.127 15.898 18.127 6.205 0 9.621-1.883 13.246-5.508l-4.53-4.253c-2.511 2.51-4.603 3.625-8.576 3.625-5.789 0-8.996-3.835-8.996-9.9h22.94v-3.138c0-10.041-5.509-17.012-14.99-17.012zm-7.95 15.199c.071-2.161.21-3.207.906-4.81 1.117-2.65 3.697-4.462 7.044-4.462 3.345 0 5.856 1.811 6.97 4.462.7 1.603.909 2.649.978 4.81h-15.898zM118.294 429.84h7.11v-35.348h-7.11v35.348zm32.768-74.797l-4.532-4.253c-2.51 2.51-4.602 3.625-8.575 3.625-5.789 0-8.996-3.834-8.996-9.901h22.94v-3.136c0-10.042-5.51-17.012-14.99-17.012-9.065 0-14.992 6.623-14.992 18.058 0 13.456 7.042 18.128 15.898 18.128 6.205 0 9.62-1.883 13.247-5.509zm-21.197-20.288c1.117-2.65 3.697-4.463 7.044-4.463 3.345 0 5.855 1.812 6.97 4.463.7 1.602.908 2.648.978 4.81h-15.898c.071-2.162.21-3.208.906-4.81zm-11.78 52.764h7.529v-7.532h-7.53v7.532zm-93.403-80.446h-7.879l-5.228 11.294h5.369l7.738-11.294zm-2.789 91.182c-2.648-3.207-5.508-4.182-9.274-4.182-3.554 0-6.552 1.115-8.506 3.067C.697 400.556.14 405.506.14 411.504c0 5.996.557 10.945 3.973 14.361 1.954 1.952 4.88 3.139 8.437 3.139 3.626 0 6.554-.977 9.134-4.044v4.531c0 4.743-2.301 8.996-8.297 8.996-3.485 0-5.44-1.046-7.67-3.138l-4.53 4.531c3.694 3.416 7.11 4.672 12.478 4.672 9.414 0 15.132-6.274 15.132-14.92v-35.14h-6.904v3.763zm-7.391 24.335c-6.414 0-7.251-5.509-7.251-11.086 0-5.58.837-11.086 7.251-11.086 6.414 0 7.182 5.506 7.182 11.086 0 5.577-.768 11.086-7.182 11.086zm39.108-28.517c-9.065 0-14.992 6.624-14.992 18.059 0 13.455 7.042 18.127 15.898 18.127 6.205 0 9.621-1.883 13.246-5.508l-4.53-4.253c-2.511 2.51-4.603 3.625-8.576 3.625-5.789 0-8.996-3.835-8.996-9.9H68.6v-3.138c0-10.041-5.51-17.012-14.99-17.012zm-7.95 15.199c.071-2.161.21-3.207.906-4.81 1.117-2.65 3.696-4.462 7.044-4.462 3.345 0 5.855 1.811 6.97 4.462.7 1.603.909 2.649.977 4.81H45.66zm507.806-80.934c-2.58-3.067-5.508-3.972-9.272-3.972-3.556 0-6.623 1.183-8.577 3.135-3.554 3.557-3.973 9.553-3.973 14.923 0 5.368.419 11.433 3.973 14.99 1.954 1.951 5.09 3.138 8.646 3.138 3.835 0 6.695-.977 9.343-4.185v3.766h6.973V310.49h-7.113v17.85zm-7.32 25.868c-6.414 0-7.391-5.508-7.391-11.782 0-6.276.977-11.713 7.391-11.713s7.32 5.437 7.32 11.713c0 6.274-.906 11.782-7.32 11.782zm37.503-29.84c-9.065 0-14.991 6.623-14.991 18.058 0 13.456 7.041 18.128 15.897 18.128 6.205 0 9.621-1.883 13.247-5.509l-4.532-4.253c-2.51 2.51-4.602 3.625-8.575 3.625-5.789 0-8.996-3.834-8.996-9.901h22.94v-3.136c0-10.042-5.509-17.012-14.99-17.012zm-7.95 15.198c.072-2.16.21-3.207.906-4.81 1.117-2.65 3.697-4.462 7.044-4.462 3.345 0 5.856 1.812 6.97 4.463.7 1.602.909 2.648.978 4.81h-15.898zm-261.845-32.491h-7.878l-5.228 11.294h5.368l7.738-11.294zM55.562 388.075L63.3 376.78h-7.878l-5.228 11.295h5.368zm307.92-27.942v-35.35h-7.11v35.35h7.11zm-311.546.419c4.88 0 8.297-1.465 11.645-5.021l-4.881-4.672c-2.23 2.442-3.975 3.347-6.764 3.347-2.72 0-5.018-1.115-6.554-3.138-1.533-1.951-2.09-4.531-2.09-8.644 0-4.115.557-6.626 2.09-8.577 1.536-2.021 3.834-3.136 6.554-3.136 2.789 0 4.534.906 6.764 3.345l4.88-4.74c-3.347-3.557-6.763-4.95-11.644-4.95-7.947 0-15.757 4.81-15.757 18.058 0 13.247 7.81 18.128 15.757 18.128zm-36.944-36.186C5.927 324.366 0 330.989 0 342.424c0 13.456 7.042 18.128 15.898 18.128 6.204 0 9.62-1.883 13.246-5.509l-4.531-4.253c-2.51 2.51-4.603 3.625-8.575 3.625-5.79 0-8.996-3.834-8.996-9.901H29.98v-3.136c0-10.042-5.508-17.012-14.99-17.012zm-7.95 15.198c.071-2.16.209-3.207.906-4.81 1.117-2.65 3.696-4.462 7.044-4.462 3.345 0 5.855 1.812 6.97 4.463.699 1.602.908 2.648.977 4.81H7.042zm380.385 54.51c-4.672 0-8.228 1.673-11.086 5.158-2.232-3.416-5.649-5.159-10.04-5.159-3.556 0-7.041 1.393-9.414 3.973v-3.554h-6.97v35.348h7.11v-21.543c0-5.44 3.347-7.879 7.322-7.879 3.973 0 7.111 2.37 7.111 7.879v21.543h7.111v-21.893c0-5.09 3.488-7.529 7.322-7.529 3.975 0 7.111 2.37 7.111 7.879v21.543h7.113v-22.59c0-3.974-1.046-7.322-3.766-9.97-2.092-2.023-5.299-3.207-8.924-3.207zm-.867-69.708c-9.065 0-14.992 6.623-14.992 18.058 0 13.456 7.042 18.128 15.898 18.128 6.205 0 9.62-1.883 13.246-5.509l-4.53-4.253c-2.511 2.51-4.603 3.625-8.576 3.625-5.789 0-8.996-3.834-8.996-9.901h22.94v-3.136c0-10.042-5.51-17.012-14.99-17.012zm-7.95 15.198c.071-2.16.21-3.207.906-4.81 1.117-2.65 3.697-4.462 7.044-4.462 3.345 0 5.855 1.812 6.97 4.463.7 1.602.909 2.648.978 4.81H378.61zm94.063 47.955h7.529v-7.532h-7.53v7.532zm-146.737 10.807v-3.834h-6.97v35.348h7.11v-21.474c0-4.88 3.207-7.948 7.042-7.948 2.441 0 3.696.766 5.299 2.37l5.368-5.37c-2.44-2.44-5.019-3.345-8.435-3.345-3.975 0-7.6 1.743-9.414 4.253zm171.667-47.536c-2.51 2.51-4.603 3.625-8.575 3.625-5.79 0-8.996-3.834-8.996-9.901h22.94v-3.136c0-10.042-5.51-17.012-14.99-17.012-9.065 0-14.992 6.623-14.992 18.058 0 13.456 7.042 18.128 15.898 18.128 6.204 0 9.62-1.883 13.246-5.509l-4.53-4.253zm-16.665-16.035c1.117-2.65 3.696-4.463 7.044-4.463 3.345 0 5.855 1.812 6.97 4.463.7 1.602.908 2.648.977 4.81h-15.897c.071-2.162.21-3.208.906-4.81zm-137.39-10.39c-3.975 0-7.6 1.743-9.414 4.254v-3.835h-6.97v35.35h7.11v-21.476c0-4.88 3.207-7.947 7.042-7.947 2.441 0 3.697.766 5.3 2.37l5.367-5.37c-2.439-2.44-5.018-3.345-8.435-3.345zM456.64 384.38h-7.11v10.74h-4.047v5.436h4.046v19.454c0 5.09 3.067 9.83 9.69 9.83h4.253v-6.067h-2.928c-2.65 0-3.904-1.533-3.904-4.112v-19.105h6.832v-5.437h-6.832V384.38zm16.242 45.46h7.11v-35.348h-7.11v35.348zm-50.051-35.767c-5.855 0-9.343 1.184-12.688 5.09l4.671 4.391c1.952-2.51 3.835-3.416 7.739-3.416 5.508 0 7.74 2.16 7.74 6.623v2.51h-9.343c-8.09 0-12.203 4.254-12.203 10.18 0 2.998.977 5.718 2.789 7.6 2.161 2.162 5.09 3.208 9.483 3.208 4.394 0 6.833-1.046 9.413-3.626v3.207h6.972v-23.635c0-8.02-4.88-12.132-14.573-12.132zm7.462 23.008c0 2.51-.49 4.184-1.535 5.23-1.883 1.812-3.904 2.021-6.624 2.021-4.462 0-6.483-1.811-6.483-5.021 0-3.207 2.161-5.087 6.343-5.087h8.3v2.857zm24.436-88.462v-3.835h-6.97v35.35h7.11v-21.476c0-4.88 3.208-7.947 7.042-7.947 2.442 0 3.697.766 5.3 2.37l5.368-5.37c-2.44-2.44-5.02-3.345-8.435-3.345-3.975 0-7.6 1.742-9.415 4.253zM305.21 354.415c-5.788 0-8.995-3.834-8.995-9.901h22.939v-3.136c0-10.042-5.509-17.012-14.99-17.012-9.064 0-14.991 6.623-14.991 18.058 0 13.456 7.042 18.128 15.897 18.128 6.205 0 9.621-1.883 13.247-5.509l-4.531-4.253c-2.511 2.51-4.603 3.625-8.576 3.625zm-8.09-19.66c1.118-2.65 3.697-4.463 7.044-4.463 3.345 0 5.856 1.812 6.97 4.463.7 1.602.91 2.648.978 4.81h-15.897c.07-2.162.209-3.208.905-4.81zm133.633 11.573c0 5.44-3.345 7.878-7.32 7.878s-7.113-2.37-7.113-7.878v-21.544h-7.11v22.59c0 3.975.836 7.32 3.556 9.97 2.092 2.021 5.09 3.208 8.715 3.208 3.555 0 6.973-1.325 9.412-3.975v3.556h6.973v-35.35h-7.113v21.545zm-232.891-6.973l-5.578-.488c-3.765-.349-4.88-1.951-4.88-4.043 0-2.651 2.16-4.532 6.414-4.532 3.347 0 6.485.697 8.715 2.58l4.463-4.534c-3.276-2.857-7.81-3.972-13.109-3.972-7.389 0-13.316 3.903-13.316 10.807 0 6.205 3.835 9.203 10.458 9.759l5.647.49c3.418.278 4.742 1.812 4.742 4.182 0 3.347-3.416 4.88-7.74 4.88-3.486 0-7.32-.765-10.18-3.694l-4.672 4.672c4.184 4.113 9.065 5.09 14.852 5.09 8.437 0 14.713-3.835 14.713-11.226 0-6.274-3.906-9.412-10.529-9.971zm-47.64 54.718c-9.065 0-14.991 6.624-14.991 18.059 0 13.455 7.041 18.127 15.897 18.127 6.205 0 9.621-1.883 13.247-5.508l-4.532-4.253c-2.51 2.51-4.602 3.625-8.575 3.625-5.788 0-8.996-3.835-8.996-9.9h22.94v-3.138c0-10.041-5.509-17.012-14.99-17.012zm-7.95 15.199c.072-2.161.21-3.207.906-4.81 1.118-2.65 3.697-4.462 7.044-4.462 3.345 0 5.856 1.811 6.97 4.462.7 1.603.909 2.649.978 4.81h-15.898zm94.698-52.695v3.556h6.973v-35.35h-7.114v21.545c0 5.44-3.344 7.878-7.32 7.878s-7.112-2.37-7.112-7.878v-21.544h-7.111v22.59c0 3.975.837 7.32 3.556 9.97 2.092 2.021 5.09 3.208 8.716 3.208 3.554 0 6.973-1.325 9.412-3.975zm-36.784 30.942h7.53v-7.532h-7.53v7.532zm.21 42.321h7.11v-35.348h-7.11v35.348zm311.525-31.585c-2.648-3.207-5.508-4.182-9.343-4.182-3.556 0-6.693 1.184-8.647 3.136-3.554 3.556-3.972 9.552-3.972 14.923 0 5.368.418 11.432 3.972 14.989 1.954 1.952 5.022 3.138 8.578 3.138 3.763 0 6.692-.977 9.272-4.044v17.918h7.113v-49.641h-6.973v3.763zm-7.46 25.659c-6.414 0-7.391-5.509-7.391-11.782 0-6.277.977-11.714 7.39-11.714 6.415 0 7.32 5.437 7.32 11.714 0 6.273-.905 11.782-7.32 11.782zm-268.93-29.84c-3.557 0-6.973 1.323-9.415 3.972v-3.554h-6.97v35.348h7.11v-21.543c0-5.44 3.348-7.879 7.323-7.879 3.972 0 7.11 2.37 7.11 7.879v21.543h7.111v-22.59c0-3.974-.836-7.322-3.554-9.97-2.092-2.023-5.09-3.207-8.715-3.207zm58.693 0c-4.812 0-8.228 1.81-10.53 4.18-3.345 3.488-4.181 7.95-4.181 13.878 0 5.995.836 10.458 4.181 13.943 2.302 2.37 5.718 4.184 10.53 4.184 4.811 0 8.297-1.814 10.598-4.184 3.347-3.485 4.182-7.948 4.182-13.943 0-5.927-.835-10.39-4.182-13.877-2.301-2.37-5.787-4.182-10.598-4.182zm5.23 27.748c-1.327 1.326-3.138 2.092-5.23 2.092s-3.835-.766-5.16-2.092c-2.162-2.161-2.44-5.856-2.44-9.69 0-3.835.278-7.532 2.44-9.693 1.325-1.324 3.068-2.02 5.16-2.02s3.903.696 5.23 2.02c2.16 2.161 2.44 5.858 2.44 9.693 0 3.834-.28 7.529-2.44 9.69zm252.27-5.787c0 5.44-3.346 7.879-7.32 7.879-3.976 0-7.114-2.37-7.114-7.879v-21.543h-7.11v22.59c0 3.974.837 7.32 3.556 9.97 2.092 2.02 5.09 3.207 8.716 3.207 3.554 0 6.97-1.324 9.411-3.975v3.556h6.973v-35.348h-7.113v21.543zm-291.52-26.355v5.44h-4.045v5.436h4.044v29.284h7.11v-29.284h7.043v-5.437h-7.042v-5.09c0-2.58 1.255-4.115 3.906-4.115h3.136v-6.065h-4.462c-6.624 0-9.69 4.74-9.69 9.83zm18.589-62.179c-1.952-1.952-5.09-3.135-8.647-3.135-3.834 0-6.692.974-9.343 4.181v-3.763h-6.97v49.642h7.11v-17.918c2.58 3.067 5.509 4.044 9.275 4.044 3.554 0 6.623-1.187 8.575-3.139 3.556-3.556 3.975-9.62 3.975-14.989 0-5.37-.419-11.366-3.975-14.923zm-10.458 26.705c-6.414 0-7.391-5.508-7.391-11.782 0-6.276.977-11.713 7.39-11.713 6.415 0 7.32 5.437 7.32 11.713 0 6.274-.905 11.782-7.32 11.782z" fill="#00eaff"/><path d="M462.16 137.376l-19.74 41.888 48.344.217s4.458 22.051-1.987 27.512c-12.868 10.905-20.615 12.866-37.54 12.866-16.928 0-31.286-6.027-43.08-18.079-11.8-12.056-17.697-26.544-17.697-43.469s5.897-31.5 17.696-43.722c11.795-12.226 26.153-18.337 43.081-18.337h37.924l22.6-40.779h-60.524c-28.383 0-52.787 10.047-73.216 30.136-20.43 20.089-30.646 44.327-30.646 72.702 0 28.38 10.216 52.53 30.646 72.446 20.429 19.92 44.833 29.876 73.216 29.876 24.784 0 56.272-12.544 70.928-31.9 20.999-27.735 11.86-58.107 5.849-91.357h-65.855zM103.604 96.252h40.507l20.272-40.779h-60.779c-28.383 0-52.744 10.047-73.086 30.136C10.173 105.698.004 129.936.004 158.31c0 28.38 10.169 52.53 30.515 72.446 20.342 19.92 44.703 29.876 73.086 29.876h60.78l-20.78-40.774h-40c-16.754 0-31.025-6.07-42.824-18.21-11.795-12.134-17.694-26.58-17.694-43.338 0-16.755 5.9-31.286 17.694-43.599 11.799-12.307 26.07-18.46 42.824-18.46zm453.239-14.735v170.615H600V55.521l-43.156 25.996zM319.053 155.13c-5.571-5.414-12.036-9.702-19.408-12.858-7.371-3.16-15.272-4.74-23.69-4.74h-45.271c-5.72 0-10.536-2.03-14.443-6.093-3.91-4.063-5.863-8.947-5.863-14.667 0-5.71 1.953-10.527 5.863-14.438 3.907-3.906 8.723-5.867 14.443-5.867H300.8l18.244-40.163h-88.36c-8.427 0-16.324 1.58-23.691 4.737-7.376 3.16-13.764 7.448-19.179 12.862-5.418 5.414-9.701 11.811-12.862 19.179-3.16 7.375-4.74 15.272-4.74 23.69 0 8.427 1.58 16.323 4.74 23.69 3.16 7.377 7.444 13.846 12.862 19.409 5.415 5.57 11.803 9.926 19.179 13.086 7.367 3.156 15.264 4.737 23.69 4.737h45.272c6.016 0 10.98 1.96 14.891 5.867 3.906 3.915 5.868 8.727 5.868 14.442 0 6.02-1.962 10.986-5.868 14.892-3.91 3.91-8.875 5.863-14.891 5.863H167.298l19.857 40.162h88.8c8.418 0 16.319-1.576 23.69-4.736 7.372-3.16 13.837-7.516 19.408-13.087 5.562-5.562 9.926-12.027 13.087-19.403 3.156-7.371 4.736-15.269 4.736-23.69 0-8.423-1.58-16.32-4.736-23.695-3.161-7.368-7.525-13.765-13.087-19.179z" fill="#001b40"/></svg>